<svg xmlns="http://www.w3.org/2000/svg" viewBox="0 0 550 320" style="background:#f8f9fa;border-radius:12px;font-family:system-ui,sans-serif">
<defs><style>.t{font-size:12px;text-anchor:middle;fill:#333}.s{font-size:10px;fill:#666}</style></defs>
<text x="275" y="25" text-anchor="middle" font-size="14" font-weight="700" fill="#333">KV Cache: Avoid Recomputing Previous Tokens</text>
<!-- Step 1: Generate token 1 -->
<text x="275" y="50" text-anchor="middle" font-size="12" fill="#1565c0" font-weight="600">Step 1: Process "Hello"</text>
<rect x="180" y="60" width="50" height="25" fill="#bbdefb" stroke="#1565c0" rx="4"/><text x="205" y="77" class="t">K₁</text>
<rect x="240" y="60" width="50" height="25" fill="#c8e6c9" stroke="#2e7d32" rx="4"/><text x="265" y="77" class="t">V₁</text>
<rect x="310" y="55" width="40" height="30" fill="#fff3e0" stroke="#e65100" rx="4"/><text x="330" y="75" class="t">Hello</text>
<!-- Step 2: Generate token 2 -->
<text x="275" y="110" text-anchor="middle" font-size="12" fill="#1565c0" font-weight="600">Step 2: Process "World" (K₁,V₁ cached!)</text>
<rect x="130" y="120" width="50" height="25" fill="#bbdefb" stroke="#1565c0" rx="4"/><text x="155" y="137" class="t">K₁ 🔒</text>
<rect x="190" y="120" width="50" height="25" fill="#c8e6c9" stroke="#2e7d32" rx="4"/><text x="215" y="137" class="t">V₁ 🔒</text>
<rect x="260" y="120" width="50" height="25" fill="#90caf9" stroke="#1565c0" rx="4"/><text x="285" y="137" class="t">K₂</text>
<rect x="320" y="120" width="50" height="25" fill="#a5d6a7" stroke="#2e7d32" rx="4"/><text x="345" y="137" class="t">V₂</text>
<rect x="390" y="115" width="40" height="30" fill="#fff3e0" stroke="#e65100" rx="4"/><text x="410" y="135" class="t">World</text>
<!-- Step 3 -->
<text x="275" y="170" text-anchor="middle" font-size="12" fill="#1565c0" font-weight="600">Step 3: Generate "!" (K₁V₁ K₂V₂ cached!)</text>
<rect x="80" y="180" width="50" height="25" fill="#bbdefb" stroke="#1565c0" rx="4"/><text x="105" y="197" class="t">K₁ 🔒</text>
<rect x="140" y="180" width="50" height="25" fill="#c8e6c9" stroke="#2e7d32" rx="4"/><text x="165" y="197" class="t">V₁ 🔒</text>
<rect x="210" y="180" width="50" height="25" fill="#bbdefb" stroke="#1565c0" rx="4"/><text x="235" y="197" class="t">K₂ 🔒</text>
<rect x="270" y="180" width="50" height="25" fill="#c8e6c9" stroke="#2e7d32" rx="4"/><text x="295" y="197" class="t">V₂ 🔒</text>
<rect x="340" y="180" width="50" height="25" fill="#64b5f6" stroke="#1565c0" rx="4"/><text x="365" y="197" class="t">K₃</text>
<rect x="400" y="180" width="50" height="25" fill="#66bb6a" stroke="#2e7d32" rx="4"/><text x="425" y="197" class="t">V₃</text>
<rect x="470" y="175" width="30" height="30" fill="#fff3e0" stroke="#e65100" rx="4"/><text x="485" y="195" class="t">!</text>
<!-- Without cache comparison -->
<rect x="30" y="230" width="500" height="75" fill="#ffebee" stroke="#c62828" rx="8"/>
<text x="280" y="250" text-anchor="middle" font-size="12" fill="#c62828" font-weight="600">❌ Without KV Cache</text>
<text x="280" y="268" text-anchor="middle" font-size="11" fill="#666">Each step recomputes ALL previous tokens → O(n²) per step → O(n³) total</text>
<text x="280" y="285" text-anchor="middle" font-size="11" fill="#2e7d32" font-weight="600">✅ With KV Cache: Only compute new token → O(n) per step → O(n²) total</text>
<text x="280" y="300" text-anchor="middle" font-size="10" fill="#666">Trade-off: KV Cache memory grows linearly with sequence length</text>
</svg>