<svg xmlns="http://www.w3.org/2000/svg" viewBox="0 0 500 250" style="background:#f8f9fa;border-radius:12px;font-family:system-ui,sans-serif">
<defs><marker id="c" markerWidth="8" markerHeight="8" refX="6" refY="4" orient="auto"><path d="M0,0L8,4L0,8Z" fill="#666"/></marker></defs>
<!-- Original W (frozen) -->
<rect x="50" y="50" width="120" height="120" fill="#e0e0e0" stroke="#9e9e9e" stroke-width="3" rx="4"/>
<text x="110" y="105" text-anchor="middle" font-size="28" font-weight="700" fill="#999">W</text>
<text x="110" y="130" text-anchor="middle" font-size="12" fill="#999">Frozen ❄️</text>
<text x="110" y="40" text-anchor="middle" font-size="13" fill="#333">Pre-trained Weights</text>
<text x="110" y="185" text-anchor="middle" font-size="11" fill="#666">d × d (e.g. 4096×4096)</text>
<!-- + -->
<text x="200" y="115" text-anchor="middle" font-size="24" fill="#4caf50" font-weight="700">+</text>
<!-- LoRA: B × A -->
<rect x="230" y="50" width="50" height="120" fill="#e8f5e9" stroke="#4caf50" stroke-width="2" rx="4"/>
<text x="255" y="105" text-anchor="middle" font-size="20" font-weight="700" fill="#2e7d32">B</text>
<text x="255" y="40" text-anchor="middle" font-size="11" fill="#2e7d32">d × r</text>
<text x="290" y="115" text-anchor="middle" font-size="16" fill="#666">×</text>
<rect x="300" y="50" width="120" height="50" fill="#e8f5e9" stroke="#4caf50" stroke-width="2" rx="4"/>
<text x="360" y="80" text-anchor="middle" font-size="20" font-weight="700" fill="#2e7d32">A</text>
<text x="360" y="40" text-anchor="middle" font-size="11" fill="#2e7d32">r × d</text>
<!-- Trainable -->
<rect x="230" y="180" width="190" height="25" fill="#c8e6c9" stroke="#4caf50" stroke-width="1" rx="6"/>
<text x="325" y="197" text-anchor="middle" font-size="12" fill="#2e7d32" font-weight="600">Trainable 🔥 (r=8)</text>
<!-- Output -->
<line x1="420" y1="110" x2="450" y2="110" stroke="#666" stroke-width="1.5" marker-end="url(#c)"/>
<text x="455" y="115" font-size="13" fill="#333">W' = W + BA</text>
<!-- Param comparison -->
<rect x="30" y="215" width="440" height="28" fill="#fff8e1" stroke="#ffc107" rx="6"/>
<text x="250" y="233" text-anchor="middle" font-size="11" fill="#666">Full: 16.7M params → LoRA: 65K params (256× fewer, same output shape)</text>
</svg>