<svg xmlns="http://www.w3.org/2000/svg" viewBox="0 0 580 250" style="background:#f8f9fa;border-radius:12px;font-family:system-ui,sans-serif">
<defs><style>.t{font-size:11px;text-anchor:middle;fill:#333}</style></defs>
<text x="290" y="22" text-anchor="middle" font-size="14" font-weight="700">RLHF (Left) vs DPO (Right) Training Pipeline</text>
<!-- RLHF side -->
<rect x="10" y="35" width="270" height="200" fill="#fce4ec" opacity="0.1" stroke="#880e4f" stroke-dasharray="4,3" rx="8"/>
<text x="145" y="52" text-anchor="middle" font-size="12" fill="#880e4f" font-weight="600">RLHF (4 models, complex)</text>
<rect x="30" y="60" width="100" height="25" fill="#e3f2fd" stroke="#1565c0" rx="4"/><text x="80" y="77" class="t">SFT Model</text>
<line x1="80" y1="85" x2="80" y2="95" stroke="#666" stroke-width="1.5"/>
<rect x="30" y="95" width="100" height="25" fill="#fff3e0" stroke="#e65100" rx="4"/><text x="80" y="112" class="t">Reward Model</text>
<text x="160" y="112" class="t" fill="#e65100">+ human labels</text>
<line x1="80" y1="120" x2="80" y2="130" stroke="#666" stroke-width="1.5"/>
<rect x="30" y="130" width="100" height="25" fill="#e8eaf6" stroke="#283593" rx="4"/><text x="80" y="147" class="t">PPO Training</text>
<text x="145" y="147" font-size="10" fill="#666">needs 4 models:</text>
<text x="145" y="160" font-size="9" fill="#999">Actor, Ref, Reward, Critic</text>
<line x1="80" y1="155" x2="80" y2="170" stroke="#666" stroke-width="1.5"/>
<rect x="30" y="170" width="100" height="25" fill="#e8f5e9" stroke="#2e7d32" rx="4"/><text x="80" y="187" class="t">Aligned Model</text>
<text x="145" y="200" font-size="10" fill="#c62828">❌ Unstable</text>
<text x="145" y="212" font-size="10" fill="#c62828">❌ Expensive</text>
<text x="145" y="224" font-size="10" fill="#c62828">❌ 4× GPU memory</text>
<!-- DPO side -->
<rect x="300" y="35" width="270" height="200" fill="#e8f5e9" opacity="0.1" stroke="#2e7d32" stroke-dasharray="4,3" rx="8"/>
<text x="435" y="52" text-anchor="middle" font-size="12" fill="#2e7d32" font-weight="600">DPO (2 models, simple)</text>
<rect x="320" y="60" width="100" height="25" fill="#e3f2fd" stroke="#1565c0" rx="4"/><text x="370" y="77" class="t">SFT Model</text>
<line x1="370" y1="85" x2="370" y2="95" stroke="#666" stroke-width="1.5"/>
<rect x="320" y="95" width="100" height="50" fill="#fff3e0" stroke="#e65100" rx="4"/>
<text x="370" y="115" class="t">DPO Training</text>
<text x="370" y="130" font-size="9" fill="#666">direct preference</text>
<text x="370" y="140" font-size="9" fill="#666">optimization</text>
<text x="445" y="115" font-size="10" fill="#666">needs only:</text>
<text x="445" y="128" font-size="9" fill="#999">Policy + Reference</text>
<text x="445" y="140" font-size="9" fill="#999">+ preference pairs</text>
<line x1="370" y1="145" x2="370" y2="170" stroke="#666" stroke-width="1.5"/>
<rect x="320" y="170" width="100" height="25" fill="#e8f5e9" stroke="#2e7d32" rx="4"/><text x="370" y="187" class="t">Aligned Model</text>
<text x="445" y="200" font-size="10" fill="#2e7d32">✅ Stable</text>
<text x="445" y="212" font-size="10" fill="#2e7d32">✅ 2× GPU memory</text>
<text x="445" y="224" font-size="10" fill="#2e7d32">✅ No Reward Model</text>
</svg>